<mxfile host="app.diagrams.net" modified="2024-02-19T15:25:43.185Z" agent="Mozilla/5.0 (Windows NT 10.0; Win64; x64) AppleWebKit/537.36 (KHTML, like Gecko) Chrome/121.0.0.0 Safari/537.36 Edg/121.0.0.0" etag="O4qz2uRuMp2izTCCwmZV" version="23.1.5" type="device">
  <diagram name="V2" id="xazSntdLqJKF5WuCdxwc">
    <mxGraphModel dx="1222" dy="697" grid="1" gridSize="10" guides="1" tooltips="1" connect="1" arrows="1" fold="1" page="1" pageScale="1" pageWidth="850" pageHeight="1100" math="0" shadow="0">
      <root>
        <mxCell id="hVDaip0IasZPoEA9I7b5-0" />
        <mxCell id="hVDaip0IasZPoEA9I7b5-1" parent="hVDaip0IasZPoEA9I7b5-0" />
        <mxCell id="hVDaip0IasZPoEA9I7b5-3" value="" style="endArrow=none;html=1;rounded=0;strokeWidth=2;fillColor=#a0522d;strokeColor=#6D1F00;" parent="hVDaip0IasZPoEA9I7b5-1" edge="1">
          <mxGeometry width="50" height="50" relative="1" as="geometry">
            <mxPoint x="40" y="40" as="sourcePoint" />
            <mxPoint x="800" y="40" as="targetPoint" />
          </mxGeometry>
        </mxCell>
        <mxCell id="hVDaip0IasZPoEA9I7b5-4" value="" style="endArrow=none;html=1;rounded=0;strokeWidth=2;fillColor=#dae8fc;strokeColor=#6c8ebf;" parent="hVDaip0IasZPoEA9I7b5-1" edge="1">
          <mxGeometry width="50" height="50" relative="1" as="geometry">
            <mxPoint x="40" y="80" as="sourcePoint" />
            <mxPoint x="800" y="80" as="targetPoint" />
          </mxGeometry>
        </mxCell>
        <mxCell id="hVDaip0IasZPoEA9I7b5-5" value="L1 (230V)" style="text;html=1;strokeColor=none;fillColor=none;align=center;verticalAlign=middle;whiteSpace=wrap;rounded=0;" parent="hVDaip0IasZPoEA9I7b5-1" vertex="1">
          <mxGeometry x="40" y="40" width="80" height="20" as="geometry" />
        </mxCell>
        <mxCell id="hVDaip0IasZPoEA9I7b5-6" value="N (0V)" style="text;html=1;strokeColor=none;fillColor=none;align=center;verticalAlign=middle;whiteSpace=wrap;rounded=0;" parent="hVDaip0IasZPoEA9I7b5-1" vertex="1">
          <mxGeometry x="40" y="80" width="60" height="20" as="geometry" />
        </mxCell>
        <mxCell id="hVDaip0IasZPoEA9I7b5-7" value="Power Supply&lt;br&gt;5V 2A" style="rounded=0;whiteSpace=wrap;html=1;" parent="hVDaip0IasZPoEA9I7b5-1" vertex="1">
          <mxGeometry x="95" y="120" width="100" height="40" as="geometry" />
        </mxCell>
        <mxCell id="hVDaip0IasZPoEA9I7b5-8" value="" style="endArrow=none;html=1;rounded=0;exitX=0.25;exitY=0;exitDx=0;exitDy=0;strokeWidth=2;fillColor=#dae8fc;strokeColor=#6c8ebf;" parent="hVDaip0IasZPoEA9I7b5-1" source="hVDaip0IasZPoEA9I7b5-7" edge="1">
          <mxGeometry width="50" height="50" relative="1" as="geometry">
            <mxPoint x="50" y="310" as="sourcePoint" />
            <mxPoint x="120" y="80" as="targetPoint" />
          </mxGeometry>
        </mxCell>
        <mxCell id="hVDaip0IasZPoEA9I7b5-9" value="" style="endArrow=none;html=1;rounded=0;exitX=0.75;exitY=0;exitDx=0;exitDy=0;strokeWidth=2;fillColor=#a0522d;strokeColor=#6D1F00;" parent="hVDaip0IasZPoEA9I7b5-1" source="hVDaip0IasZPoEA9I7b5-7" edge="1">
          <mxGeometry width="50" height="50" relative="1" as="geometry">
            <mxPoint x="175" y="90" as="sourcePoint" />
            <mxPoint x="170" y="40" as="targetPoint" />
          </mxGeometry>
        </mxCell>
        <mxCell id="hVDaip0IasZPoEA9I7b5-10" value="" style="endArrow=none;html=1;rounded=0;entryX=0.25;entryY=1;entryDx=0;entryDy=0;strokeWidth=2;" parent="hVDaip0IasZPoEA9I7b5-1" target="hVDaip0IasZPoEA9I7b5-7" edge="1">
          <mxGeometry width="50" height="50" relative="1" as="geometry">
            <mxPoint x="800" y="240" as="sourcePoint" />
            <mxPoint x="150" y="220" as="targetPoint" />
            <Array as="points">
              <mxPoint x="120" y="240" />
            </Array>
          </mxGeometry>
        </mxCell>
        <mxCell id="hVDaip0IasZPoEA9I7b5-11" value="" style="endArrow=none;html=1;rounded=0;entryX=0.75;entryY=1;entryDx=0;entryDy=0;strokeWidth=2;fillColor=#f8cecc;strokeColor=#b85450;" parent="hVDaip0IasZPoEA9I7b5-1" target="hVDaip0IasZPoEA9I7b5-7" edge="1">
          <mxGeometry width="50" height="50" relative="1" as="geometry">
            <mxPoint x="800" y="200" as="sourcePoint" />
            <mxPoint x="180" y="220" as="targetPoint" />
            <Array as="points">
              <mxPoint x="170" y="200" />
            </Array>
          </mxGeometry>
        </mxCell>
        <mxCell id="hVDaip0IasZPoEA9I7b5-12" value="5V" style="text;html=1;strokeColor=none;fillColor=none;align=center;verticalAlign=middle;whiteSpace=wrap;rounded=0;" parent="hVDaip0IasZPoEA9I7b5-1" vertex="1">
          <mxGeometry x="170" y="180" width="40" height="20" as="geometry" />
        </mxCell>
        <mxCell id="hVDaip0IasZPoEA9I7b5-13" value="0V" style="text;html=1;strokeColor=none;fillColor=none;align=center;verticalAlign=middle;whiteSpace=wrap;rounded=0;" parent="hVDaip0IasZPoEA9I7b5-1" vertex="1">
          <mxGeometry x="120" y="220" width="40" height="20" as="geometry" />
        </mxCell>
        <mxCell id="hVDaip0IasZPoEA9I7b5-15" value="" style="endArrow=none;html=1;rounded=0;strokeWidth=2;" parent="hVDaip0IasZPoEA9I7b5-1" edge="1">
          <mxGeometry width="50" height="50" relative="1" as="geometry">
            <mxPoint x="730" y="240" as="sourcePoint" />
            <mxPoint x="730" y="240" as="targetPoint" />
          </mxGeometry>
        </mxCell>
        <mxCell id="hVDaip0IasZPoEA9I7b5-18" value="" style="endArrow=none;html=1;rounded=0;strokeWidth=2;" parent="hVDaip0IasZPoEA9I7b5-1" edge="1">
          <mxGeometry width="50" height="50" relative="1" as="geometry">
            <mxPoint x="40" y="240" as="sourcePoint" />
            <mxPoint x="120" y="240" as="targetPoint" />
          </mxGeometry>
        </mxCell>
        <mxCell id="hVDaip0IasZPoEA9I7b5-19" value="" style="endArrow=none;html=1;rounded=0;fillColor=#f8cecc;strokeColor=#b85450;strokeWidth=2;" parent="hVDaip0IasZPoEA9I7b5-1" edge="1">
          <mxGeometry width="50" height="50" relative="1" as="geometry">
            <mxPoint x="40" y="200" as="sourcePoint" />
            <mxPoint x="170" y="200" as="targetPoint" />
          </mxGeometry>
        </mxCell>
        <mxCell id="hVDaip0IasZPoEA9I7b5-21" value="" style="endArrow=none;html=1;rounded=0;strokeWidth=2;" parent="hVDaip0IasZPoEA9I7b5-1" edge="1">
          <mxGeometry width="50" height="50" relative="1" as="geometry">
            <mxPoint x="120" y="280" as="sourcePoint" />
            <mxPoint x="120" y="240" as="targetPoint" />
          </mxGeometry>
        </mxCell>
        <mxCell id="hVDaip0IasZPoEA9I7b5-22" value="" style="endArrow=none;html=1;rounded=0;strokeWidth=2;fillColor=#f8cecc;strokeColor=#b85450;" parent="hVDaip0IasZPoEA9I7b5-1" edge="1">
          <mxGeometry width="50" height="50" relative="1" as="geometry">
            <mxPoint x="190" y="280" as="sourcePoint" />
            <mxPoint x="190" y="200" as="targetPoint" />
          </mxGeometry>
        </mxCell>
        <mxCell id="hVDaip0IasZPoEA9I7b5-26" value="" style="pointerEvents=1;verticalLabelPosition=bottom;shadow=0;dashed=0;align=center;html=1;verticalAlign=top;shape=mxgraph.electrical.electro-mechanical.loudspeaker;fillColor=#f5f5f5;fontColor=#333333;strokeColor=#666666;strokeWidth=2;" parent="hVDaip0IasZPoEA9I7b5-1" vertex="1">
          <mxGeometry x="720" y="400" width="80" height="120" as="geometry" />
        </mxCell>
        <mxCell id="YzSw_B4QZBqDwRmD1GTX-1" value="Speaker" style="rounded=0;whiteSpace=wrap;html=1;fillColor=none;strokeColor=none;" parent="hVDaip0IasZPoEA9I7b5-1" vertex="1">
          <mxGeometry x="710" y="500" width="60" height="30" as="geometry" />
        </mxCell>
        <mxCell id="YzSw_B4QZBqDwRmD1GTX-10" value="5V" style="text;html=1;strokeColor=none;fillColor=none;align=center;verticalAlign=middle;whiteSpace=wrap;rounded=0;" parent="hVDaip0IasZPoEA9I7b5-1" vertex="1">
          <mxGeometry x="760" y="180" width="40" height="20" as="geometry" />
        </mxCell>
        <mxCell id="YzSw_B4QZBqDwRmD1GTX-11" value="0V" style="text;html=1;strokeColor=none;fillColor=none;align=center;verticalAlign=middle;whiteSpace=wrap;rounded=0;" parent="hVDaip0IasZPoEA9I7b5-1" vertex="1">
          <mxGeometry x="760" y="220" width="40" height="20" as="geometry" />
        </mxCell>
        <mxCell id="Npy4qoXU-be4u3-dqfKq-2" value="" style="endArrow=none;html=1;rounded=0;exitX=0;exitY=0.6;exitDx=0;exitDy=0;exitPerimeter=0;strokeWidth=2;" edge="1" parent="hVDaip0IasZPoEA9I7b5-1" source="hVDaip0IasZPoEA9I7b5-26">
          <mxGeometry width="50" height="50" relative="1" as="geometry">
            <mxPoint x="410" y="490" as="sourcePoint" />
            <mxPoint x="640" y="470" as="targetPoint" />
          </mxGeometry>
        </mxCell>
        <mxCell id="Npy4qoXU-be4u3-dqfKq-3" value="" style="endArrow=none;html=1;rounded=0;strokeWidth=2;" edge="1" parent="hVDaip0IasZPoEA9I7b5-1">
          <mxGeometry width="50" height="50" relative="1" as="geometry">
            <mxPoint x="640" y="470" as="sourcePoint" />
            <mxPoint x="640" y="240" as="targetPoint" />
          </mxGeometry>
        </mxCell>
        <mxCell id="Npy4qoXU-be4u3-dqfKq-4" value="" style="endArrow=none;html=1;rounded=0;fillColor=#f8cecc;strokeColor=#b85450;exitX=0;exitY=0.4;exitDx=0;exitDy=0;exitPerimeter=0;strokeWidth=2;" edge="1" parent="hVDaip0IasZPoEA9I7b5-1" source="hVDaip0IasZPoEA9I7b5-26">
          <mxGeometry width="50" height="50" relative="1" as="geometry">
            <mxPoint x="410" y="490" as="sourcePoint" />
            <mxPoint x="720" y="200" as="targetPoint" />
          </mxGeometry>
        </mxCell>
        <mxCell id="Npy4qoXU-be4u3-dqfKq-6" value="" style="rounded=0;whiteSpace=wrap;html=1;rotation=90;" vertex="1" parent="hVDaip0IasZPoEA9I7b5-1">
          <mxGeometry x="110" y="325" width="200" height="225" as="geometry" />
        </mxCell>
        <mxCell id="Npy4qoXU-be4u3-dqfKq-7" value="Bare Conductive" style="text;html=1;align=center;verticalAlign=middle;whiteSpace=wrap;rounded=0;" vertex="1" parent="hVDaip0IasZPoEA9I7b5-1">
          <mxGeometry x="180" y="420" width="60" height="30" as="geometry" />
        </mxCell>
        <mxCell id="Npy4qoXU-be4u3-dqfKq-8" value="&lt;font style=&quot;font-size: 7px;&quot;&gt;5V&lt;/font&gt;" style="text;html=1;align=center;verticalAlign=middle;whiteSpace=wrap;rounded=0;" vertex="1" parent="hVDaip0IasZPoEA9I7b5-1">
          <mxGeometry x="160" y="340" width="60" height="30" as="geometry" />
        </mxCell>
        <mxCell id="Npy4qoXU-be4u3-dqfKq-9" value="&lt;font style=&quot;font-size: 7px;&quot;&gt;GND&lt;/font&gt;" style="text;html=1;align=center;verticalAlign=middle;whiteSpace=wrap;rounded=0;" vertex="1" parent="hVDaip0IasZPoEA9I7b5-1">
          <mxGeometry x="90" y="340" width="60" height="30" as="geometry" />
        </mxCell>
        <mxCell id="Npy4qoXU-be4u3-dqfKq-10" value="" style="endArrow=none;html=1;rounded=0;strokeWidth=2;" edge="1" parent="hVDaip0IasZPoEA9I7b5-1" target="Npy4qoXU-be4u3-dqfKq-9">
          <mxGeometry width="50" height="50" relative="1" as="geometry">
            <mxPoint x="120" y="280" as="sourcePoint" />
            <mxPoint x="240" y="280" as="targetPoint" />
          </mxGeometry>
        </mxCell>
        <mxCell id="Npy4qoXU-be4u3-dqfKq-11" value="" style="endArrow=none;html=1;rounded=0;fillColor=#f8cecc;strokeColor=#b85450;exitX=0.5;exitY=0;exitDx=0;exitDy=0;strokeWidth=2;" edge="1" parent="hVDaip0IasZPoEA9I7b5-1" source="Npy4qoXU-be4u3-dqfKq-8">
          <mxGeometry width="50" height="50" relative="1" as="geometry">
            <mxPoint x="190" y="330" as="sourcePoint" />
            <mxPoint x="190" y="280" as="targetPoint" />
          </mxGeometry>
        </mxCell>
        <mxCell id="Npy4qoXU-be4u3-dqfKq-13" value="E0" style="text;html=1;align=center;verticalAlign=middle;whiteSpace=wrap;rounded=0;" vertex="1" parent="hVDaip0IasZPoEA9I7b5-1">
          <mxGeometry x="80" y="510" width="60" height="30" as="geometry" />
        </mxCell>
        <mxCell id="Npy4qoXU-be4u3-dqfKq-14" value="E1" style="text;html=1;align=center;verticalAlign=middle;whiteSpace=wrap;rounded=0;" vertex="1" parent="hVDaip0IasZPoEA9I7b5-1">
          <mxGeometry x="110" y="510" width="60" height="30" as="geometry" />
        </mxCell>
        <mxCell id="Npy4qoXU-be4u3-dqfKq-15" value="E2" style="text;html=1;align=center;verticalAlign=middle;whiteSpace=wrap;rounded=0;" vertex="1" parent="hVDaip0IasZPoEA9I7b5-1">
          <mxGeometry x="150" y="510" width="60" height="30" as="geometry" />
        </mxCell>
        <mxCell id="Npy4qoXU-be4u3-dqfKq-16" value="E3" style="text;html=1;align=center;verticalAlign=middle;whiteSpace=wrap;rounded=0;" vertex="1" parent="hVDaip0IasZPoEA9I7b5-1">
          <mxGeometry x="210" y="510" width="60" height="30" as="geometry" />
        </mxCell>
        <mxCell id="Npy4qoXU-be4u3-dqfKq-17" value="E4" style="text;html=1;align=center;verticalAlign=middle;whiteSpace=wrap;rounded=0;" vertex="1" parent="hVDaip0IasZPoEA9I7b5-1">
          <mxGeometry x="270" y="510" width="60" height="30" as="geometry" />
        </mxCell>
        <mxCell id="Npy4qoXU-be4u3-dqfKq-19" value="" style="shape=mxgraph.signs.animals.bear_1;html=1;pointerEvents=1;fillColor=#000000;strokeColor=none;verticalLabelPosition=bottom;verticalAlign=top;align=center;sketch=0;" vertex="1" parent="hVDaip0IasZPoEA9I7b5-1">
          <mxGeometry x="52" y="640" width="98" height="62" as="geometry" />
        </mxCell>
        <mxCell id="Npy4qoXU-be4u3-dqfKq-22" value="" style="shape=mxgraph.signs.animals.deer_1;html=1;pointerEvents=1;fillColor=#000000;strokeColor=none;verticalLabelPosition=bottom;verticalAlign=top;align=center;sketch=0;" vertex="1" parent="hVDaip0IasZPoEA9I7b5-1">
          <mxGeometry x="170" y="590" width="82" height="98" as="geometry" />
        </mxCell>
        <mxCell id="Npy4qoXU-be4u3-dqfKq-23" value="" style="shape=mxgraph.signs.animals.dog_on_leash;html=1;pointerEvents=1;fillColor=#000000;strokeColor=none;verticalLabelPosition=bottom;verticalAlign=top;align=center;sketch=0;" vertex="1" parent="hVDaip0IasZPoEA9I7b5-1">
          <mxGeometry x="310" y="570" width="97" height="91" as="geometry" />
        </mxCell>
        <mxCell id="Npy4qoXU-be4u3-dqfKq-24" value="" style="shape=mxgraph.signs.animals.duck;html=1;pointerEvents=1;fillColor=#000000;strokeColor=none;verticalLabelPosition=bottom;verticalAlign=top;align=center;sketch=0;" vertex="1" parent="hVDaip0IasZPoEA9I7b5-1">
          <mxGeometry x="105" y="728" width="105" height="73" as="geometry" />
        </mxCell>
        <mxCell id="Npy4qoXU-be4u3-dqfKq-25" value="" style="shape=mxgraph.signs.animals.snake;html=1;pointerEvents=1;fillColor=#000000;strokeColor=none;verticalLabelPosition=bottom;verticalAlign=top;align=center;sketch=0;" vertex="1" parent="hVDaip0IasZPoEA9I7b5-1">
          <mxGeometry x="240" y="670" width="98" height="98" as="geometry" />
        </mxCell>
        <mxCell id="Npy4qoXU-be4u3-dqfKq-26" value="" style="endArrow=none;html=1;rounded=0;strokeWidth=2;" edge="1" parent="hVDaip0IasZPoEA9I7b5-1">
          <mxGeometry width="50" height="50" relative="1" as="geometry">
            <mxPoint x="90" y="680" as="sourcePoint" />
            <mxPoint x="110" y="540" as="targetPoint" />
          </mxGeometry>
        </mxCell>
        <mxCell id="Npy4qoXU-be4u3-dqfKq-27" value="" style="endArrow=none;html=1;rounded=0;entryX=0.5;entryY=1;entryDx=0;entryDy=0;exitX=0.5;exitY=0.46;exitDx=0;exitDy=0;exitPerimeter=0;strokeWidth=2;" edge="1" parent="hVDaip0IasZPoEA9I7b5-1" source="Npy4qoXU-be4u3-dqfKq-24" target="Npy4qoXU-be4u3-dqfKq-14">
          <mxGeometry width="50" height="50" relative="1" as="geometry">
            <mxPoint x="190" y="730" as="sourcePoint" />
            <mxPoint x="240" y="680" as="targetPoint" />
          </mxGeometry>
        </mxCell>
        <mxCell id="Npy4qoXU-be4u3-dqfKq-28" value="" style="endArrow=none;html=1;rounded=0;exitX=0.5;exitY=0.43;exitDx=0;exitDy=0;exitPerimeter=0;strokeWidth=2;" edge="1" parent="hVDaip0IasZPoEA9I7b5-1" source="Npy4qoXU-be4u3-dqfKq-22">
          <mxGeometry width="50" height="50" relative="1" as="geometry">
            <mxPoint x="160" y="680" as="sourcePoint" />
            <mxPoint x="180" y="540" as="targetPoint" />
          </mxGeometry>
        </mxCell>
        <mxCell id="Npy4qoXU-be4u3-dqfKq-30" value="" style="endArrow=none;html=1;rounded=0;entryX=0.5;entryY=1;entryDx=0;entryDy=0;exitX=0.5;exitY=0.235;exitDx=0;exitDy=0;exitPerimeter=0;strokeWidth=2;" edge="1" parent="hVDaip0IasZPoEA9I7b5-1" source="Npy4qoXU-be4u3-dqfKq-25" target="Npy4qoXU-be4u3-dqfKq-16">
          <mxGeometry width="50" height="50" relative="1" as="geometry">
            <mxPoint x="290" y="640" as="sourcePoint" />
            <mxPoint x="340" y="590" as="targetPoint" />
          </mxGeometry>
        </mxCell>
        <mxCell id="Npy4qoXU-be4u3-dqfKq-32" value="" style="endArrow=none;html=1;rounded=0;entryX=0.5;entryY=1;entryDx=0;entryDy=0;exitX=0.5;exitY=0.255;exitDx=0;exitDy=0;exitPerimeter=0;strokeWidth=2;" edge="1" parent="hVDaip0IasZPoEA9I7b5-1" source="Npy4qoXU-be4u3-dqfKq-23" target="Npy4qoXU-be4u3-dqfKq-17">
          <mxGeometry width="50" height="50" relative="1" as="geometry">
            <mxPoint x="170" y="610" as="sourcePoint" />
            <mxPoint x="220" y="560" as="targetPoint" />
          </mxGeometry>
        </mxCell>
      </root>
    </mxGraphModel>
  </diagram>
</mxfile>
